<svg width="12" height="17" viewBox="0 0 12 17" fill="none" xmlns="http://www.w3.org/2000/svg">
<path d="M6.65707 6.63587C6.76706 6.28525 7.23301 6.28525 7.343 6.63587L7.98793 8.69395C8.12989 9.14636 8.36906 9.55742 8.6865 9.89455C9.00393 10.2317 9.3909 10.4856 9.81673 10.6362L11.7525 11.3215C12.0825 11.4384 12.0825 11.9335 11.7525 12.0504L9.81573 12.7357C9.38998 12.8866 9.00314 13.1407 8.68588 13.478C8.36862 13.8153 8.12965 14.2265 7.98793 14.679L7.343 16.736C7.31929 16.8128 7.27336 16.8797 7.21177 16.9271C7.15018 16.9745 7.07608 17 7.00004 17C6.92399 17 6.84989 16.9745 6.7883 16.9271C6.72671 16.8797 6.68079 16.8128 6.65707 16.736L6.01214 14.678C5.87029 14.2257 5.63126 13.8147 5.31401 13.4776C4.99676 13.1404 4.60999 12.8865 4.18434 12.7357L2.24755 12.0504C2.17529 12.0252 2.11237 11.9764 2.06777 11.911C2.02316 11.8455 1.99914 11.7668 1.99914 11.686C1.99914 11.6052 2.02316 11.5264 2.06777 11.461C2.11237 11.3955 2.17529 11.3467 2.24755 11.3215L4.18434 10.6362C4.60999 10.4855 4.99676 10.2315 5.31401 9.89436C5.63126 9.55724 5.87029 9.14625 6.01214 8.69395L6.65707 6.63587ZM2.79449 1.21816C2.80883 1.17215 2.83645 1.13211 2.87342 1.10373C2.9104 1.07535 2.95485 1.06008 3.00047 1.06008C3.04608 1.06008 3.09053 1.07535 3.12751 1.10373C3.16448 1.13211 3.1921 1.17215 3.20644 1.21816L3.5934 2.45279C3.76638 3.00317 4.17234 3.43455 4.69028 3.61836L5.85216 4.02955C5.89546 4.04479 5.93314 4.07414 5.95985 4.11343C5.98656 4.15272 6.00093 4.19996 6.00093 4.24843C6.00093 4.2969 5.98656 4.34413 5.95985 4.38342C5.93314 4.42272 5.89546 4.45207 5.85216 4.4673L4.69028 4.87849C4.43469 4.96863 4.20242 5.12094 4.012 5.3233C3.82157 5.52565 3.67823 5.77246 3.5934 6.04406L3.20644 7.27869C3.1921 7.3247 3.16448 7.36474 3.12751 7.39312C3.09053 7.4215 3.04608 7.43678 3.00047 7.43678C2.95485 7.43678 2.9104 7.4215 2.87342 7.39312C2.83645 7.36474 2.80883 7.3247 2.79449 7.27869L2.40753 6.04406C2.3227 5.77246 2.17936 5.52565 1.98893 5.3233C1.79851 5.12094 1.56624 4.96863 1.31065 4.87849L0.148771 4.4673C0.10547 4.45207 0.0677891 4.42272 0.041082 4.38342C0.0143748 4.34413 0 4.2969 0 4.24843C0 4.19996 0.0143748 4.15272 0.041082 4.11343C0.0677891 4.07414 0.10547 4.04479 0.148771 4.02955L1.31065 3.61836C1.56624 3.52822 1.79851 3.37591 1.98893 3.17356C2.17936 2.9712 2.3227 2.7244 2.40753 2.45279L2.79449 1.21816ZM9.86273 0.103597C9.8726 0.0733436 9.8911 0.0471099 9.91565 0.0285434C9.9402 0.00997682 9.96958 0 9.99971 0C10.0298 0 10.0592 0.00997682 10.0838 0.0285434C10.1083 0.0471099 10.1268 0.0733436 10.1367 0.103597L10.3947 0.925975C10.5097 1.2936 10.7806 1.58154 11.1266 1.70373L11.9005 1.97785C11.929 1.98834 11.9537 2.008 11.9711 2.03409C11.9886 2.06017 11.998 2.0914 11.998 2.12342C11.998 2.15544 11.9886 2.18666 11.9711 2.21275C11.9537 2.23884 11.929 2.25849 11.9005 2.26898L11.1266 2.54311C10.9562 2.60367 10.8015 2.70545 10.6745 2.84041C10.5474 2.97538 10.4517 3.13985 10.3947 3.32086L10.1367 4.14324C10.1268 4.17349 10.1083 4.19973 10.0838 4.21829C10.0592 4.23686 10.0298 4.24684 9.99971 4.24684C9.96958 4.24684 9.9402 4.23686 9.91565 4.21829C9.8911 4.19973 9.8726 4.17349 9.86273 4.14324L9.60476 3.32086C9.54776 3.13985 9.45198 2.97538 9.32497 2.84041C9.19796 2.70545 9.04318 2.60367 8.87283 2.54311L8.09992 2.26898C8.07145 2.25849 8.04676 2.23884 8.02929 2.21275C8.01181 2.18666 8.00243 2.15544 8.00243 2.12342C8.00243 2.0914 8.01181 2.06017 8.02929 2.03409C8.04676 2.008 8.07145 1.98834 8.09992 1.97785L8.87383 1.70373C9.2198 1.58154 9.49077 1.2936 9.60576 0.925975L9.86273 0.103597Z" fill="#6B5BFE"/>
</svg>
