<svg width="131" height="30" viewBox="0 0 131 30" fill="none" xmlns="http://www.w3.org/2000/svg">
<path d="M21.7715 13.4473C21.7975 13.4668 21.8724 13.4766 21.9961 13.4766C22.1198 13.4766 22.2142 13.4277 22.2793 13.3301C22.3444 13.2324 22.377 13.0729 22.377 12.8516V12.1094C22.377 11.875 22.3477 11.709 22.2891 11.6113C22.237 11.5072 22.1458 11.4551 22.0156 11.4551C21.8919 11.4551 21.8073 11.4681 21.7617 11.4941C21.7682 11.5267 21.7715 11.582 21.7715 11.6602V13.4473ZM22.0156 17.8613V19.3555C21.7292 19.5964 21.3255 19.7949 20.8047 19.9512C20.2839 20.1009 19.7402 20.1758 19.1738 20.1758C18.3665 20.1758 17.7057 20.0195 17.1914 19.707C16.6055 19.349 16.3125 18.8314 16.3125 18.1543V8.87695C16.3125 8.66862 16.4525 8.46029 16.7324 8.25195C17.0189 8.04362 17.4128 7.85482 17.9141 7.68555C18.9883 7.32096 20.2155 7.13867 21.5957 7.13867C23.5033 7.13867 25.0234 7.61393 26.1562 8.56445C27.2891 9.51497 27.8555 10.7943 27.8555 12.4023C27.8555 14.0039 27.3444 15.2507 26.3223 16.1426C25.3392 16.9889 23.9753 17.4121 22.2305 17.4121C21.8333 17.4121 21.4069 17.3665 20.9512 17.2754C20.502 17.1777 20.1992 17.0931 20.043 17.0215C19.9909 17.0736 19.9648 17.1452 19.9648 17.2363C19.9648 17.5684 20.6484 17.7767 22.0156 17.8613ZM38.5684 15.166C38.5684 15.6348 38.6204 16.0124 38.7246 16.2988C38.8288 16.5853 39.0111 16.8099 39.2715 16.9727C39.278 17.0052 39.2812 17.0671 39.2812 17.1582V17.334C39.2812 18.2324 39.0208 18.9323 38.5 19.4336C37.9857 19.9284 37.3184 20.1758 36.498 20.1758C35.6842 20.1758 35.0234 19.9447 34.5156 19.4824C33.9232 18.9551 33.627 18.1543 33.627 17.0801C33.627 16.6243 33.6465 16.224 33.6855 15.8789C33.7311 15.5273 33.7604 15.2767 33.7734 15.127C33.793 14.9772 33.8125 14.8372 33.832 14.707C33.8516 14.5768 33.8613 14.3848 33.8613 14.1309C33.8613 13.877 33.8255 13.6947 33.7539 13.584C33.6888 13.4733 33.5944 13.418 33.4707 13.418C33.3535 13.418 33.2493 13.444 33.1582 13.4961L33.2852 15.0879C33.168 15.7454 33.1094 16.4421 33.1094 17.1777C33.1094 17.9134 33.2754 18.584 33.6074 19.1895C32.9694 19.847 32.0742 20.1758 30.9219 20.1758C30.2643 20.1758 29.6947 20.0033 29.2129 19.6582C28.653 19.2676 28.373 18.75 28.373 18.1055V6.70898C28.6855 6.52669 29.0599 6.37695 29.4961 6.25977C29.9388 6.14258 30.3848 6.08398 30.834 6.08398C31.5827 6.08398 32.2012 6.23047 32.6895 6.52344C33.2428 6.86849 33.5195 7.36328 33.5195 8.00781V8.93555C32.9531 8.9681 32.4095 9.13086 31.8887 9.42383C31.4395 9.68424 31.2148 9.92188 31.2148 10.1367C31.2148 10.2083 31.2409 10.2734 31.293 10.332C31.3451 10.3841 31.4069 10.4167 31.4785 10.4297C31.752 10.1107 32.1361 9.84375 32.6309 9.62891C33.1322 9.41406 33.7246 9.30664 34.4082 9.30664C35.0918 9.30664 35.707 9.41081 36.2539 9.61914C36.944 9.87956 37.4876 10.2767 37.8848 10.8105C38.36 11.4616 38.5977 12.2786 38.5977 13.2617L38.5684 15.166ZM44.6523 14.5605V16.2695C44.6979 16.3151 44.7728 16.3379 44.877 16.3379C44.9811 16.3379 45.056 16.3021 45.1016 16.2305C45.1471 16.1589 45.1699 16.0352 45.1699 15.8594V14.4629C45.1699 13.8379 45.1439 13.4245 45.0918 13.2227C45.0397 13.0143 44.9421 12.9102 44.7988 12.9102C44.7077 12.9102 44.6296 12.9427 44.5645 13.0078C44.623 13.6523 44.6523 14.1699 44.6523 14.5605ZM41 18.8867C39.9323 17.8581 39.3984 16.4648 39.3984 14.707C39.3984 12.9427 39.8997 11.5527 40.9023 10.5371C41.9115 9.51497 43.2331 9.00391 44.8672 9.00391C46.5013 9.00391 47.8229 9.53451 48.832 10.5957C49.8346 11.6569 50.3359 13.0404 50.3359 14.7461C50.3359 16.4453 49.8509 17.7962 48.8809 18.7988C47.9173 19.8014 46.6055 20.3027 44.9453 20.3027C43.2852 20.3027 41.9701 19.8307 41 18.8867ZM51.7227 13.8281H52.3281C52.6536 13.8281 52.8164 13.7207 52.8164 13.5059C52.8164 13.4798 52.8099 13.4408 52.7969 13.3887H50.6094C50.4661 12.9329 50.3945 12.4251 50.3945 11.8652C50.3945 11.2988 50.4368 10.8398 50.5215 10.4883C50.8926 10.2539 51.4036 9.89583 52.0547 9.41406C52.237 8.97135 52.4746 8.26823 52.7676 7.30469C52.8066 7.17448 52.8522 7.04753 52.9043 6.92383C53.4121 6.79362 53.9915 6.72852 54.6426 6.72852C55.2936 6.72852 55.9349 6.79688 56.5664 6.93359V9.32617H58.2559C58.6335 9.89909 58.8223 10.5729 58.8223 11.3477C58.8223 11.6992 58.7734 12.0605 58.6758 12.4316C58.5781 12.8027 58.4382 13.1185 58.2559 13.3789H56.8594V14.8535C56.8594 15.6868 57.2077 16.1035 57.9043 16.1035H58.3242C58.4609 16.5983 58.5293 17.028 58.5293 17.3926C58.5293 18.291 58.2461 18.9811 57.6797 19.4629C57.1198 19.9382 56.3027 20.1758 55.2285 20.1758C54.1608 20.1758 53.3079 19.8796 52.6699 19.2871C52.0384 18.6882 51.7227 17.8092 51.7227 16.6504V13.8281ZM64.1055 14.5605V16.2695C64.151 16.3151 64.2259 16.3379 64.3301 16.3379C64.4342 16.3379 64.5091 16.3021 64.5547 16.2305C64.6003 16.1589 64.623 16.0352 64.623 15.8594V14.4629C64.623 13.8379 64.597 13.4245 64.5449 13.2227C64.4928 13.0143 64.3952 12.9102 64.252 12.9102C64.1608 12.9102 64.0827 12.9427 64.0176 13.0078C64.0762 13.6523 64.1055 14.1699 64.1055 14.5605ZM60.4531 18.8867C59.3854 17.8581 58.8516 16.4648 58.8516 14.707C58.8516 12.9427 59.3529 11.5527 60.3555 10.5371C61.3646 9.51497 62.6862 9.00391 64.3203 9.00391C65.9544 9.00391 67.276 9.53451 68.2852 10.5957C69.2878 11.6569 69.7891 13.0404 69.7891 14.7461C69.7891 16.4453 69.304 17.7962 68.334 18.7988C67.3704 19.8014 66.0586 20.3027 64.3984 20.3027C62.7383 20.3027 61.4232 19.8307 60.4531 18.8867ZM74.75 7.40234H80.3848C80.5736 7.71484 80.7135 8.05664 80.8047 8.42773C80.8958 8.79232 80.9414 9.12109 80.9414 9.41406C80.9414 10.0716 80.8112 10.5664 80.5508 10.8984C80.2969 11.2305 79.9388 11.3965 79.4766 11.3965H75.541C75.3001 11.3965 75.1797 11.4909 75.1797 11.6797V11.7578C75.1797 11.7969 75.1862 11.8229 75.1992 11.8359H79.8672C79.9844 12.0378 80.0853 12.2917 80.1699 12.5977C80.248 12.9297 80.2871 13.2259 80.2871 13.4863C80.2871 14.2611 80.1439 14.8665 79.8574 15.3027H77.7383C76.7487 15.3027 76.0781 15.3418 75.7266 15.4199C75.375 15.4915 75.1569 15.5534 75.0723 15.6055C74.9876 15.6641 74.9453 15.7389 74.9453 15.8301C74.9453 15.9212 74.9909 15.9928 75.082 16.0449C75.4206 15.9342 75.7754 15.8561 76.1465 15.8105C76.6348 15.765 77.1654 15.7422 77.7383 15.7422H80.4824C80.8796 16.3021 81.0781 16.9759 81.0781 17.7637C81.0781 18.2064 81.0228 18.6296 80.9121 19.0332C80.8014 19.4368 80.6354 19.7624 80.4141 20.0098H73.0996C72.2923 20.0098 71.6445 19.8145 71.1562 19.4238C70.6224 19.0072 70.3555 18.3952 70.3555 17.5879V8.30078C70.3555 7.98828 70.7135 7.76042 71.4297 7.61719C72.1458 7.47396 73.2526 7.40234 74.75 7.40234ZM86.7812 13.0762C86.7161 13.0111 86.638 12.9785 86.5469 12.9785C86.4036 12.9785 86.306 13.0827 86.2539 13.291C86.2018 13.4928 86.1758 13.9062 86.1758 14.5312V15.5273C86.1758 15.7031 86.1986 15.8268 86.2441 15.8984C86.2897 15.9701 86.3646 16.0059 86.4688 16.0059C86.5729 16.0059 86.6478 15.9831 86.6934 15.9375V14.6289C86.6934 13.9909 86.7227 13.4733 86.7812 13.0762ZM86.0781 7.30469C86.4232 6.90104 86.804 6.59831 87.2207 6.39648C87.6374 6.18815 88.168 6.08398 88.8125 6.08398C89.5938 6.08398 90.2285 6.30208 90.7168 6.73828C91.2181 7.20703 91.4688 7.83854 91.4688 8.63281V15.0781C91.4688 16.0482 91.7031 16.6797 92.1719 16.9727C92.1784 17.0052 92.1816 17.0671 92.1816 17.1582V17.334C92.1816 18.2585 91.9017 18.9779 91.3418 19.4922C90.847 19.9479 90.235 20.1758 89.5059 20.1758C88.998 20.1758 88.5586 20.0684 88.1875 19.8535C87.7513 19.6061 87.4453 19.2676 87.2695 18.8379C87.0482 18.8379 86.9375 18.9453 86.9375 19.1602C86.9375 19.2578 86.9733 19.3717 87.0449 19.502C87.123 19.6257 87.2272 19.7363 87.3574 19.834C86.9733 20.0618 86.4753 20.1758 85.8633 20.1758C85.0365 20.1758 84.2617 19.987 83.5391 19.6094C82.8229 19.2253 82.2533 18.6491 81.8301 17.8809C81.3418 17.002 81.0977 15.9375 81.0977 14.6875C81.0977 13.0208 81.5632 11.7122 82.4941 10.7617C83.4316 9.8112 84.6263 9.33594 86.0781 9.33594C86.9375 9.33594 87.6862 9.4987 88.3242 9.82422C88.3958 9.7526 88.4316 9.67773 88.4316 9.59961C88.4316 9.4043 88.2005 9.23828 87.7383 9.10156C87.276 8.96484 86.8105 8.89648 86.3418 8.89648C86.3418 8.23242 86.2539 7.70182 86.0781 7.30469ZM97.6406 11.2109V15.0781C97.6406 16.0482 97.875 16.6797 98.3438 16.9727C98.3503 17.0052 98.3535 17.0671 98.3535 17.1582V17.334C98.3535 18.291 98.0931 19.0104 97.5723 19.4922C97.0905 19.9479 96.446 20.1758 95.6387 20.1758C94.8379 20.1758 94.1771 19.9479 93.6562 19.4922C92.9987 18.9128 92.6699 18.0664 92.6699 16.9531V10.6055C92.7871 10.5208 92.9141 10.4525 93.0508 10.4004C93.1875 10.3483 93.3307 10.2832 93.4805 10.2051C93.2005 10.0618 92.9466 9.81445 92.7188 9.46289C92.4909 9.10482 92.377 8.68815 92.377 8.21289C92.377 7.39258 92.6471 6.72201 93.1875 6.20117C93.7279 5.68034 94.3887 5.41992 95.1699 5.41992C95.9577 5.41992 96.6152 5.68685 97.1426 6.2207C97.6764 6.74805 97.9434 7.41211 97.9434 8.21289C97.9434 8.85742 97.7415 9.42383 97.3379 9.91211C96.9342 10.3939 96.4427 10.6966 95.8633 10.8203C95.8633 11.0677 95.9577 11.1914 96.1465 11.1914C96.4785 11.1914 96.8171 11.0612 97.1621 10.8008C97.4225 11.0026 97.582 11.1393 97.6406 11.2109ZM99.6328 13.8281H100.238C100.564 13.8281 100.727 13.7207 100.727 13.5059C100.727 13.4798 100.72 13.4408 100.707 13.3887H98.5195C98.3763 12.9329 98.3047 12.4251 98.3047 11.8652C98.3047 11.2988 98.347 10.8398 98.4316 10.4883C98.8027 10.2539 99.3138 9.89583 99.9648 9.41406C100.147 8.97135 100.385 8.26823 100.678 7.30469C100.717 7.17448 100.762 7.04753 100.814 6.92383C101.322 6.79362 101.902 6.72852 102.553 6.72852C103.204 6.72852 103.845 6.79688 104.477 6.93359V9.32617H106.166C106.544 9.89909 106.732 10.5729 106.732 11.3477C106.732 11.6992 106.684 12.0605 106.586 12.4316C106.488 12.8027 106.348 13.1185 106.166 13.3789H104.77V14.8535C104.77 15.6868 105.118 16.1035 105.814 16.1035H106.234C106.371 16.5983 106.439 17.028 106.439 17.3926C106.439 18.291 106.156 18.9811 105.59 19.4629C105.03 19.9382 104.213 20.1758 103.139 20.1758C102.071 20.1758 101.218 19.8796 100.58 19.2871C99.9486 18.6882 99.6328 17.8092 99.6328 16.6504V13.8281ZM117.924 13.584C117.976 13.6361 118.057 13.6621 118.168 13.6621C118.279 13.6621 118.373 13.6393 118.451 13.5938C118.282 12.6042 118.168 12.0182 118.109 11.8359C118.038 11.6471 117.93 11.5527 117.787 11.5527C117.722 11.5527 117.644 11.5723 117.553 11.6113L117.924 13.584ZM115.99 16.5137C115.925 16.6048 115.893 16.6895 115.893 16.7676C115.893 16.9564 116.068 17.1159 116.42 17.2461C116.778 17.3698 117.211 17.4479 117.719 17.4805C117.803 18.418 117.895 18.9518 117.992 19.082C117.868 19.3229 117.527 19.5671 116.967 19.8145C116.407 20.0553 115.775 20.1758 115.072 20.1758C114.141 20.1758 113.344 19.9772 112.68 19.5801C112.016 19.1764 111.684 18.6589 111.684 18.0273C111.684 17.8581 111.7 17.7083 111.732 17.5781L113.812 8.28125C114.333 7.94922 114.955 7.6888 115.678 7.5C116.4 7.3112 117.152 7.2168 117.934 7.2168C119.053 7.2168 120.01 7.4056 120.805 7.7832C121.71 8.21289 122.26 8.83464 122.455 9.64844L124.682 18.8574C124.005 19.7363 122.901 20.1758 121.371 20.1758C120.629 20.1758 120.001 20.0423 119.486 19.7754C118.972 19.5085 118.673 19.1276 118.588 18.6328L118.373 17.4414C118.764 17.4349 119.141 17.36 119.506 17.2168C119.87 17.0736 120.053 16.9238 120.053 16.7676C120.053 16.6634 120.01 16.5788 119.926 16.5137C119.678 16.6895 119.376 16.8229 119.018 16.9141C118.66 17.0052 118.327 17.0508 118.021 17.0508C117.143 17.0508 116.465 16.8717 115.99 16.5137ZM130.688 9.16992V19.2578C130.388 19.5182 129.988 19.7363 129.486 19.9121C128.985 20.0879 128.376 20.1758 127.66 20.1758C126.944 20.1758 126.335 20.0163 125.834 19.6973C125.268 19.3522 124.984 18.8639 124.984 18.2324V8.14453C125.284 7.88411 125.684 7.66602 126.186 7.49023C126.687 7.31445 127.292 7.22656 128.002 7.22656C128.712 7.22656 129.327 7.38281 129.848 7.69531C130.408 8.05339 130.688 8.54492 130.688 9.16992Z" fill="url(#paint0_linear_34_6)"/>
<path d="M6.65707 12.6359C6.76706 12.2852 7.23301 12.2852 7.343 12.6359L7.98793 14.6939C8.12989 15.1464 8.36906 15.5574 8.6865 15.8946C9.00393 16.2317 9.3909 16.4856 9.81673 16.6362L11.7525 17.3215C12.0825 17.4384 12.0825 17.9335 11.7525 18.0504L9.81573 18.7357C9.38998 18.8866 9.00314 19.1407 8.68588 19.478C8.36862 19.8153 8.12965 20.2265 7.98793 20.679L7.343 22.736C7.31929 22.8128 7.27336 22.8797 7.21177 22.9271C7.15018 22.9745 7.07608 23 7.00004 23C6.92399 23 6.84989 22.9745 6.7883 22.9271C6.72671 22.8797 6.68079 22.8128 6.65707 22.736L6.01214 20.678C5.87029 20.2257 5.63126 19.8147 5.31401 19.4776C4.99676 19.1404 4.60999 18.8865 4.18434 18.7357L2.24755 18.0504C2.17529 18.0252 2.11237 17.9764 2.06777 17.911C2.02316 17.8455 1.99914 17.7668 1.99914 17.686C1.99914 17.6052 2.02316 17.5264 2.06777 17.461C2.11237 17.3955 2.17529 17.3467 2.24755 17.3215L4.18434 16.6362C4.60999 16.4855 4.99676 16.2315 5.31401 15.8944C5.63126 15.5572 5.87029 15.1462 6.01214 14.6939L6.65707 12.6359ZM2.79449 7.21816C2.80883 7.17215 2.83645 7.13211 2.87342 7.10373C2.9104 7.07535 2.95485 7.06008 3.00047 7.06008C3.04608 7.06008 3.09053 7.07535 3.12751 7.10373C3.16448 7.13211 3.1921 7.17215 3.20644 7.21816L3.5934 8.45279C3.76638 9.00317 4.17234 9.43455 4.69028 9.61836L5.85216 10.0296C5.89546 10.0448 5.93314 10.0741 5.95985 10.1134C5.98656 10.1527 6.00093 10.2 6.00093 10.2484C6.00093 10.2969 5.98656 10.3441 5.95985 10.3834C5.93314 10.4227 5.89546 10.4521 5.85216 10.4673L4.69028 10.8785C4.43469 10.9686 4.20243 11.1209 4.012 11.3233C3.82157 11.5257 3.67823 11.7725 3.5934 12.0441L3.20644 13.2787C3.1921 13.3247 3.16448 13.3647 3.12751 13.3931C3.09053 13.4215 3.04608 13.4368 3.00047 13.4368C2.95485 13.4368 2.9104 13.4215 2.87342 13.3931C2.83645 13.3647 2.80883 13.3247 2.79449 13.2787L2.40753 12.0441C2.3227 11.7725 2.17936 11.5257 1.98893 11.3233C1.79851 11.1209 1.56624 10.9686 1.31065 10.8785L0.148771 10.4673C0.10547 10.4521 0.0677891 10.4227 0.041082 10.3834C0.0143748 10.3441 0 10.2969 0 10.2484C0 10.2 0.0143748 10.1527 0.041082 10.1134C0.0677891 10.0741 0.10547 10.0448 0.148771 10.0296L1.31065 9.61836C1.56624 9.52822 1.79851 9.37591 1.98893 9.17356C2.17936 8.9712 2.3227 8.7244 2.40753 8.45279L2.79449 7.21816ZM9.86273 6.1036C9.8726 6.07334 9.8911 6.04711 9.91565 6.02854C9.9402 6.00998 9.96958 6 9.99971 6C10.0298 6 10.0592 6.00998 10.0838 6.02854C10.1083 6.04711 10.1268 6.07334 10.1367 6.1036L10.3947 6.92598C10.5097 7.2936 10.7806 7.58154 11.1266 7.70373L11.9005 7.97785C11.929 7.98834 11.9537 8.008 11.9711 8.03409C11.9886 8.06017 11.998 8.0914 11.998 8.12342C11.998 8.15544 11.9886 8.18666 11.9711 8.21275C11.9537 8.23884 11.929 8.25849 11.9005 8.26898L11.1266 8.54311C10.9562 8.60367 10.8015 8.70545 10.6745 8.84041C10.5474 8.97538 10.4517 9.13985 10.3947 9.32086L10.1367 10.1432C10.1268 10.1735 10.1083 10.1997 10.0838 10.2183C10.0592 10.2369 10.0298 10.2468 9.99971 10.2468C9.96958 10.2468 9.9402 10.2369 9.91565 10.2183C9.8911 10.1997 9.8726 10.1735 9.86273 10.1432L9.60476 9.32086C9.54776 9.13985 9.45198 8.97538 9.32497 8.84041C9.19796 8.70545 9.04318 8.60367 8.87284 8.54311L8.09992 8.26898C8.07145 8.25849 8.04676 8.23884 8.02929 8.21275C8.01181 8.18666 8.00243 8.15544 8.00243 8.12342C8.00243 8.0914 8.01181 8.06017 8.02929 8.03409C8.04676 8.008 8.07145 7.98834 8.09992 7.97785L8.87383 7.70373C9.2198 7.58154 9.49077 7.2936 9.60576 6.92598L9.86273 6.1036Z" fill="#6B5BFE"/>
<defs>
<linearGradient id="paint0_linear_34_6" x1="74" y1="20" x2="74" y2="-12" gradientUnits="userSpaceOnUse">
<stop stop-color="#6B5BFE"/>
<stop offset="1" stop-color="white" stop-opacity="0.74"/>
</linearGradient>
</defs>
</svg>
